<svg width="32" height="32" viewBox="0 0 32 32" fill="none" xmlns="http://www.w3.org/2000/svg">
<path d="M20 1.33301H12V3.99967H20V1.33301ZM14.6667 18.6663H17.3333V10.6663H14.6667V18.6663ZM25.3733 9.85301L27.2667 7.95967C26.6933 7.27967 26.0667 6.63967 25.3867 6.07967L23.4933 7.97301C21.3698 6.26411 18.7258 5.33259 16 5.33301C9.37333 5.33301 4 10.7063 4 17.333C4 23.9597 9.36 29.333 16 29.333C18.2591 29.3342 20.4726 28.6973 22.3855 27.4956C24.2985 26.2939 25.8331 24.5763 26.8126 22.5407C27.7921 20.505 28.1767 18.234 27.9221 15.9893C27.6674 13.7447 26.7839 11.6176 25.3733 9.85301ZM16 26.6663C10.84 26.6663 6.66667 22.493 6.66667 17.333C6.66667 12.173 10.84 7.99967 16 7.99967C21.16 7.99967 25.3333 12.173 25.3333 17.333C25.3333 22.493 21.16 26.6663 16 26.6663Z" fill="#2A2A2A"/>
</svg>
